{
    "asset" : {
        "generator" : "Khronos glTF Blender I/O v1.5.17",
        "version" : "2.0"
    },
    "scene" : 0,
    "scenes" : [
        {
            "name" : "Scene",
            "nodes" : [
                0,
                1,
                2
            ]
        }
    ],
    "nodes" : [
        {
            "name" : "Light",
            "rotation" : [
                0.16907575726509094,
                0.7558803558349609,
                -0.27217137813568115,
                0.570947527885437
            ],
            "translation" : [
                1.3342965841293335,
                3.7893166542053223,
                -0.1684703826904297
            ]
        },
        {
            "name" : "Camera",
            "rotation" : [
                0.483536034822464,
                0.33687159419059753,
                -0.20870360732078552,
                0.7804827094078064
            ],
            "translation" : [
                7.358891487121582,
                4.716113090515137,
                6.925790786743164
            ]
        },
        {
            "mesh" : 0,
            "name" : "Curve",
            "rotation" : [
                0.7005853056907654,
                0,
                0,
                0.7135686874389648
            ],
            "scale" : [
                19.572019577026367,
                19.572019577026367,
                19.572019577026367
            ],
            "translation" : [
                0,
                -3.860417127609253,
                0
            ]
        }
    ],
    "materials" : [
        {
            "doubleSided" : true,
            "name" : "Material.001",
            "pbrMetallicRoughness" : {
                "baseColorFactor" : [
                    0.8000000715255737,
                    0.48624882102012634,
                    0.1000458225607872,
                    1
                ],
                "metallicFactor" : 0,
                "roughnessFactor" : 0.5
            }
        }
    ],
    "meshes" : [
        {
            "name" : "Curve",
            "primitives" : [
                {
                    "attributes" : {
                        "POSITION" : 0,
                        "NORMAL" : 1,
                        "TEXCOORD_0" : 2
                    },
                    "indices" : 3,
                    "material" : 0
                }
            ]
        }
    ],
    "accessors" : [
        {
            "bufferView" : 0,
            "componentType" : 5126,
            "count" : 55712,
            "max" : [
                0.18050448596477509,
                0.006000000052154064,
                -0.25586315989494324
            ],
            "min" : [
                -0.10091163963079453,
                -0.006000000052154064,
                -0.3265513479709625
            ],
            "type" : "VEC3"
        },
        {
            "bufferView" : 1,
            "componentType" : 5126,
            "count" : 55712,
            "type" : "VEC3"
        },
        {
            "bufferView" : 2,
            "componentType" : 5126,
            "count" : 55712,
            "type" : "VEC2"
        },
        {
            "bufferView" : 3,
            "componentType" : 5123,
            "count" : 242244,
            "type" : "SCALAR"
        }
    ],
    "bufferViews" : [
        {
            "buffer" : 0,
            "byteLength" : 668544,
            "byteOffset" : 0
        },
        {
            "buffer" : 0,
            "byteLength" : 668544,
            "byteOffset" : 668544
        },
        {
            "buffer" : 0,
            "byteLength" : 445696,
            "byteOffset" : 1337088
        },
        {
            "buffer" : 0,
            "byteLength" : 484488,
            "byteOffset" : 1782784
        }
    ],
    "buffers" : [
        {
            "byteLength" : 2267272,
            "uri" : "tecfood8.bin"
        }
    ]
}
